<svg width="829" height="99" viewBox="0 0 829 99" fill="none" xmlns="http://www.w3.org/2000/svg">
<path d="M150.936 98.48C159.418 86.2809 158.871 68.9804 158.871 67.4278C158.871 64.1007 157.503 61.2173 152.851 59.6647C153.672 60.7737 154.22 61.4391 154.493 62.3263C155.861 64.988 154.493 67.6496 151.483 68.7586C148.747 69.8676 146.284 68.9804 144.369 66.097C143.822 65.4316 143.548 64.5443 143.274 63.8789C142.18 60.7737 143.548 58.1121 144.916 55.2287C148.2 49.24 147.652 43.695 142.18 38.3717C140.812 37.0409 140.812 34.8229 140.538 33.0485C140.264 32.3831 141.085 31.4959 141.085 30.6087C141.359 29.7215 141.359 29.0561 141.359 28.1688C137.802 32.3831 135.886 36.8191 138.349 41.6988C139.991 45.4694 139.17 49.0182 136.16 52.1234C134.518 53.8979 131.782 54.1197 128.772 52.7888C126.309 51.6798 125.762 50.5708 126.857 48.131C127.951 45.4694 129.593 42.8078 130.687 39.9243C131.782 36.8191 133.15 33.4921 132.877 30.1651C132.056 23.0674 127.13 17.7442 119.742 13.5299C117.827 12.4209 116.185 10.6465 115.638 9.09388C114.817 6.21045 115.091 3.32703 114.817 0C114.27 1.77442 113.449 3.54883 113.175 5.10144C112.628 9.31568 112.354 13.3081 115.638 17.3005C118.921 21.293 120.016 26.1726 119.195 31.0523C118.648 34.3793 114.27 37.0409 109.344 37.0409C105.24 37.0409 101.956 34.6011 100.862 31.0523C100.041 27.5034 101.409 24.3982 103.325 21.5148C104.145 20.184 105.24 18.6314 106.061 17.3005C104.966 17.7442 104.419 18.4096 103.598 19.2968C98.3992 24.8418 94.2948 30.8305 95.663 38.1499C96.7575 42.8078 98.1256 47.6874 99.4937 52.3452C100.315 55.2287 100.315 58.3339 98.1256 60.9955C96.4838 63.2135 92.9266 64.3225 90.464 63.6571C88.5486 62.9917 87.7277 60.9955 88.2749 58.3339C88.5486 56.3377 88.8222 54.1197 88.5486 52.1234C88.275 49.0182 84.4442 45.6912 80.6134 45.0258C81.4342 45.913 82.8024 46.8002 83.076 47.6874C83.8969 51.9016 84.7178 56.1159 80.887 59.8865C78.6979 62.1045 75.4144 62.7699 73.2253 64.988C71.3099 66.7624 71.0363 68.7586 71.5836 70.533L150.936 98.48Z" fill="white"/>
<path d="M212.008 69.0689C210.913 71.0651 209.819 74.3921 209.545 76.8319L244.843 75.2793C244.843 75.0575 247.58 82.1552 247.58 81.9334C247.032 77.4973 245.938 70.6215 245.39 69.2907C244.57 65.52 241.56 63.5238 238.823 60.6404C235.813 57.757 235.266 54.6517 237.182 51.1029C237.729 49.9939 238.002 48.6631 238.55 46.8887C237.729 47.3323 237.729 47.5541 237.455 47.5541C233.351 51.5465 232.53 55.9826 234.719 60.8622C235.813 63.5238 236.087 65.9636 233.898 68.1817C231.162 70.8433 227.331 70.6215 225.963 67.2945C225.142 65.2982 225.142 63.302 225.142 61.084C225.142 57.5352 225.963 54.2081 225.689 50.6593C225.416 46.4451 221.038 40.4564 216.112 38.682C216.933 40.0128 218.028 40.9 218.848 42.2308C219.669 43.5617 221.037 44.8925 221.311 46.4451C222.953 52.2119 220.49 57.5352 216.659 62.4148C214.744 64.411 213.102 66.8508 212.008 69.0689Z" fill="white"/>
<path d="M373.732 62.8319C373.185 67.4898 369.901 71.4822 366.344 75.4747C365.797 76.1401 365.25 76.3619 365.25 77.0273C364.702 79.6889 363.608 83.2377 363.334 86.1211L393.981 89.4482C394.254 88.3392 396.717 83.2377 396.991 82.1287C397.812 78.5799 398.085 75.0311 401.095 71.9258C402.737 69.9296 404.926 68.1552 406.294 66.159C410.398 61.0575 406.841 56.1779 397.812 54.4035C398.085 54.8471 398.359 55.2907 398.906 55.7343C400.548 58.1741 400.548 60.8357 399.18 63.2755C398.632 64.3846 397.264 65.2718 395.075 65.05C393.707 64.8282 391.792 64.1628 391.244 63.4973C390.424 62.3883 390.15 61.0575 389.876 59.9485C389.329 57.2869 391.792 55.0689 393.707 52.6291C397.264 48.6366 398.359 44.6442 396.717 40.4299C394.528 34.4413 385.225 30.8925 377.563 30.0053C378.931 30.6707 379.752 31.1143 380.573 31.3361C385.772 33.1105 387.687 35.9939 388.782 39.0991C390.15 42.4262 384.677 45.975 378.931 45.7532C373.459 45.5314 369.628 42.4262 370.722 39.0991C371.817 36.4375 373.185 33.9977 374.553 31.5579C376.742 27.5654 374.006 22.464 367.439 20.246C368.26 21.355 369.354 22.2422 370.449 23.3512C372.364 25.1256 372.364 27.1218 370.175 28.8962C368.807 30.0053 367.712 30.8925 366.344 32.0015C357.588 39.0991 358.135 47.7494 368.26 54.4035C373.185 56.6215 374.279 59.5049 373.732 62.8319Z" fill="white"/>
<path d="M174.904 68.2951C174.356 72.9529 171.073 76.9454 167.516 80.9378C166.968 81.6032 166.421 81.825 166.421 82.4904C165.874 85.152 164.779 88.7009 164.506 91.5843L195.152 94.9113C195.426 93.8023 197.888 88.7009 198.162 87.5918C198.983 84.043 199.257 80.4942 202.267 77.389C203.908 75.3927 206.097 73.6183 207.465 71.6221C211.57 66.5207 208.013 61.641 198.983 59.8666C199.257 60.3102 199.53 60.7538 200.077 61.1974C201.719 63.6372 201.719 66.2989 200.351 68.7387C199.804 69.8477 198.436 70.7349 196.247 70.5131C194.879 70.2913 192.963 69.6259 192.416 68.9605C191.595 67.8515 191.321 66.5207 191.048 65.4117C190.5 62.75 192.963 60.532 194.879 58.0922C198.436 54.0998 199.53 50.1073 197.888 45.8931C195.699 39.9044 186.396 36.3556 178.734 35.4684C180.103 36.1338 180.923 36.5774 181.744 36.7992C186.943 38.5736 188.859 41.457 189.953 44.5623C191.321 47.8893 185.849 51.4381 180.103 51.2163C174.63 50.9945 170.799 47.8893 171.894 44.5623C172.988 41.9006 174.356 39.4608 175.724 37.021C177.914 33.0286 175.177 27.9271 168.61 25.7091C169.431 26.8181 170.526 27.7053 171.62 28.8143C173.535 30.5887 173.535 32.585 171.346 34.3594C169.978 35.4684 168.884 36.3556 167.516 37.4646C158.759 44.5623 159.307 53.2125 169.431 59.8666C174.356 62.0846 175.451 64.968 174.904 68.2951Z" fill="white"/>
<path d="M5.48623 64.474C6.58074 66.0267 0.560902 79.3348 0.0136433 81.1092C-1.08087 83.549 64.0429 73.5679 64.3165 71.7935C64.8638 68.4665 65.411 65.1395 68.9682 62.4778C71.4308 60.7034 71.9781 58.2636 71.1572 55.8238C70.3363 51.6095 68.1473 48.0607 64.8637 44.7337C62.1275 41.8502 62.1275 38.9668 63.7692 35.6398C64.3165 34.5308 64.8638 33.2 65.411 32.091L64.8637 31.8692C64.0429 32.9782 62.9483 34.309 62.1274 35.418C59.1175 40.5194 58.023 45.8427 60.2121 51.3877C61.3066 54.2712 60.7593 57.3764 57.4758 59.1508C55.2867 60.4816 52.2768 61.5906 49.5405 62.256C44.3416 63.365 40.2371 60.4816 40.2371 56.0456C40.2371 54.0494 40.5108 51.8313 39.9635 49.8351C38.5954 44.7337 34.4909 40.7412 30.3865 37.1924C28.1975 35.1962 26.282 33.2 26.0084 30.5383C25.7348 27.4331 26.0084 24.3279 26.0084 21.2227C25.7348 21.4445 25.1875 21.8881 24.9139 22.5535C20.8095 28.3203 21.3567 34.0872 25.1875 39.6322C27.3766 42.9592 28.7447 46.0645 28.4711 49.6133C28.1975 54.0494 24.3666 58.0418 19.7149 58.7072C15.3369 59.3726 12.8742 57.5982 13.1479 54.0494C13.1479 52.9403 13.6951 51.8313 13.9687 50.9441C15.0633 47.6171 12.0533 44.0683 7.67527 43.6247C8.76978 45.1773 10.9588 46.2863 9.86431 48.2825C9.04342 49.8351 7.67528 51.3877 6.58077 52.7185C6.30714 52.9403 6.03348 53.1621 6.03348 53.3839C3.84444 55.3802 3.29719 57.82 4.11808 60.4816C4.39171 62.0342 4.66534 63.365 5.48623 64.474Z" fill="white"/>
<path d="M359.136 74.0116C358.041 75.5643 364.061 88.8724 364.608 90.6468C365.703 93.0866 300.579 83.1055 300.306 81.3311C299.758 78.0041 299.211 74.6771 295.654 72.0154C293.191 70.241 292.644 67.8012 293.465 65.3614C294.286 61.1471 296.475 57.5983 299.758 54.2713C302.495 51.3878 302.495 48.5044 300.853 45.1774C300.306 44.0684 299.758 42.7376 299.211 41.6286L299.758 41.4067C300.579 42.5158 301.674 43.8466 302.495 44.9556C305.505 50.057 306.599 55.3803 304.41 60.9253C303.316 63.8088 303.863 66.914 307.146 68.6884C309.335 70.0192 312.345 71.1282 315.082 71.7936C320.281 72.9026 324.385 70.0192 324.385 65.5832C324.385 63.5869 324.111 61.3689 324.659 59.3727C326.027 54.2713 330.131 50.2788 334.236 46.73C336.425 44.7338 338.34 42.7376 338.614 40.0759C338.887 36.9707 338.614 33.8655 338.614 30.7603C338.887 30.9821 339.435 31.4257 339.708 32.0911C343.813 37.8579 343.265 43.6248 339.435 49.1698C337.246 52.4968 335.877 55.6021 336.151 59.1509C336.425 63.5869 340.256 67.5794 344.907 68.2448C349.285 68.9102 351.748 67.1358 351.474 63.5869C351.474 62.4779 350.927 61.3689 350.653 60.4817C349.559 57.1547 352.569 53.6059 356.947 53.1623C355.852 54.7149 353.663 55.8239 354.758 57.8201C355.579 59.3727 356.947 60.9253 358.041 62.2561C358.315 62.4779 358.589 62.6997 358.589 62.9215C360.778 64.9178 361.325 67.3576 360.504 70.0192C360.23 71.5718 359.957 72.9026 359.136 74.0116Z" fill="white"/>
<path d="M56.2593 30.7602C53.7966 26.3241 52.4285 21.6663 54.3439 16.7866C54.8911 15.6776 55.4384 14.5686 55.712 13.2378C56.5329 10.798 56.8065 8.35816 54.3439 6.36194C54.0703 6.14014 53.7966 5.69653 53.7966 5.47473C53.7966 5.47473 53.7966 5.47473 53.7966 5.25293C60.911 7.47095 63.3737 11.6852 61.4583 17.8956C60.911 19.6701 59.8165 21.4445 58.4483 22.9971C56.2593 26.3241 55.9857 26.9895 56.2593 30.7602Z" fill="white"/>
<path d="M250.248 62.6905C250.522 63.7995 250.795 64.9085 250.522 66.0175L250.795 79.3256L279.253 88.6413C285.82 72.4498 287.188 65.3521 286.914 63.3559C286.914 62.9123 286.914 59.3634 287.462 58.9198C291.292 55.5928 291.84 51.6004 288.009 48.0515C285.273 45.6117 285.546 42.9501 286.641 40.2885C287.188 39.1795 287.735 38.0704 288.282 36.7396C288.009 36.7396 288.009 36.5178 287.735 36.5178C286.914 37.6268 285.82 38.7359 285.273 40.0667C283.631 43.3937 283.631 46.7207 284.999 50.0478C285.546 51.3786 285.273 52.4876 284.452 53.5966C283.631 54.7056 281.989 55.1492 280.347 54.7056C278.979 54.262 278.158 53.3748 278.432 52.2658C278.979 50.2696 279.8 48.2733 280.347 46.4989C281.168 44.2809 282.263 42.0629 282.263 39.8449C282.536 34.7434 280.074 30.3074 276.243 26.3149C275.148 25.2059 273.78 24.3187 272.686 23.4315L272.412 23.6533C272.686 24.0969 273.233 24.7623 273.507 25.2059C274.601 26.9803 275.969 28.533 276.79 30.5292C278.158 33.4126 277.885 36.5178 275.969 39.1795C274.875 40.9539 272.959 41.6193 270.77 41.1757C268.034 40.5103 266.392 38.7359 267.213 36.0742C267.76 34.078 268.581 32.0818 269.402 30.3074C267.487 31.86 265.845 33.6344 264.477 35.6306C261.467 40.5103 261.74 45.3899 263.929 50.2696C265.024 52.7094 266.119 55.371 266.939 57.8108C267.487 60.0288 267.213 62.2469 264.75 63.5777C262.014 65.1303 260.646 64.4649 260.099 62.2469C259.825 61.3596 259.551 60.2506 259.825 59.3634C260.372 56.7018 259.551 54.4838 257.91 52.2658C256.542 50.4914 255.173 48.7169 254.9 46.4989C254.626 46.9425 254.079 47.1643 254.079 47.6079C253.532 49.3823 254.353 50.7132 254.9 52.2658C255.447 53.5966 255.994 55.1492 256.268 56.48C256.542 57.8108 255.447 58.698 253.805 58.698C252.163 58.698 251.069 58.0326 251.069 56.48C251.069 55.371 251.616 54.0402 251.616 52.9312C249.154 54.262 248.059 55.8146 248.606 58.2544C249.154 59.807 249.974 61.1379 250.248 62.6905Z" fill="white"/>
<path d="M273.641 56.7017C272.273 53.5964 270.357 50.9348 272.546 48.0514C273.093 49.1604 273.641 50.4912 274.188 51.6002C274.735 53.3746 274.462 54.9273 273.641 56.7017Z" fill="white"/>
<path d="M571.241 98.48C579.723 86.2809 579.176 68.9804 579.176 67.4278C579.176 64.1007 577.808 61.2173 573.156 59.6647C573.977 60.7737 574.524 61.4391 574.798 62.3263C576.166 64.988 574.798 67.6496 571.788 68.7586C569.052 69.8676 566.589 68.9804 564.674 66.097C564.126 65.4316 563.853 64.5443 563.579 63.8789C562.485 60.7737 563.853 58.1121 565.221 55.2287C568.505 49.24 567.957 43.695 562.485 38.3717C561.117 37.0409 561.117 34.8229 560.843 33.0485C560.569 32.3831 561.39 31.4959 561.39 30.6087C561.664 29.7215 561.664 29.0561 561.664 28.1688C558.107 32.3831 556.191 36.8191 558.654 41.6988C560.296 45.4694 559.475 49.0182 556.465 52.1234C554.823 53.8979 552.087 54.1197 549.077 52.7888C546.614 51.6798 546.067 50.5708 547.161 48.131C548.256 45.4694 549.898 42.8078 550.992 39.9243C552.087 36.8191 553.455 33.4921 553.181 30.1651C552.36 23.0674 547.435 17.7442 540.047 13.5299C538.132 12.4209 536.49 10.6465 535.943 9.09388C535.122 6.21045 535.395 3.32703 535.122 0C534.575 1.77442 533.754 3.54883 533.48 5.10144C532.933 9.31568 532.659 13.3081 535.943 17.3005C539.226 21.293 540.321 26.1726 539.5 31.0523C538.953 34.3793 534.575 37.0409 529.649 37.0409C525.545 37.0409 522.261 34.6011 521.167 31.0523C520.346 27.5034 521.714 24.3982 523.629 21.5148C524.45 20.184 525.545 18.6314 526.366 17.3005C525.271 17.7442 524.724 18.4096 523.903 19.2968C518.704 24.8418 514.6 30.8305 515.968 38.1499C517.062 42.8078 518.43 47.6874 519.799 52.3452C520.619 55.2287 520.619 58.3339 518.43 60.9955C516.789 63.2135 513.231 64.3225 510.769 63.6571C508.853 62.9917 508.032 60.9955 508.58 58.3339C508.853 56.3377 509.127 54.1197 508.853 52.1234C508.58 49.0182 504.749 45.6912 500.918 45.0258C501.739 45.913 503.107 46.8002 503.381 47.6874C504.202 51.9016 505.023 56.1159 501.192 59.8865C499.003 62.1045 495.719 62.7699 493.53 64.988C491.615 66.7624 491.341 68.7586 491.888 70.533L571.241 98.48Z" fill="white"/>
<path d="M632.314 69.0689C631.22 71.0651 630.125 74.3921 629.852 76.8319L665.15 75.2793C665.15 75.0575 667.886 82.1552 667.886 81.9334C667.339 77.4973 666.244 70.6215 665.697 69.2907C664.876 65.52 661.866 63.5238 659.13 60.6404C656.12 57.757 655.573 54.6517 657.488 51.1029C658.035 49.9939 658.309 48.6631 658.856 46.8887C658.035 47.3323 658.035 47.5541 657.762 47.5541C653.657 51.5465 652.836 55.9826 655.025 60.8622C656.12 63.5238 656.394 65.9636 654.204 68.1817C651.468 70.8433 647.637 70.6215 646.269 67.2945C645.448 65.2982 645.448 63.302 645.448 61.084C645.448 57.5352 646.269 54.2081 645.996 50.6593C645.722 46.4451 641.344 40.4564 636.419 38.682C637.239 40.0128 638.334 40.9 639.155 42.2308C639.976 43.5617 641.344 44.8925 641.618 46.4451C643.259 52.2119 640.797 57.5352 636.966 62.4148C635.05 64.411 633.409 66.8508 632.314 69.0689Z" fill="white"/>
<path d="M794.037 62.8321C793.49 67.4899 790.206 71.4823 786.649 75.4748C786.102 76.1402 785.554 76.362 785.554 77.0274C785.007 79.689 783.913 83.2378 783.639 86.1213L814.286 89.4483C814.559 88.3393 817.022 83.2378 817.295 82.1288C818.116 78.58 818.39 75.0312 821.4 71.9259C823.042 69.9297 825.231 68.1553 826.599 66.1591C830.703 61.0576 827.146 56.178 818.116 54.4036C818.39 54.8472 818.664 55.2908 819.211 55.7344C820.853 58.1742 820.853 60.8358 819.484 63.2757C818.937 64.3847 817.569 65.2719 815.38 65.0501C814.012 64.8283 812.096 64.1629 811.549 63.4975C810.728 62.3885 810.455 61.0577 810.181 59.9486C809.634 57.287 812.096 55.069 814.012 52.6292C817.569 48.6367 818.664 44.6443 817.022 40.4301C814.833 34.4414 805.529 30.8926 797.868 30.0054C799.236 30.6708 800.057 31.1144 800.878 31.3362C806.077 33.1106 807.992 35.994 809.087 39.0993C810.455 42.4263 804.982 45.9751 799.236 45.7533C793.763 45.5315 789.933 42.4263 791.027 39.0993C792.122 36.4376 793.49 33.9978 794.858 31.558C797.047 27.5656 794.311 22.4641 787.743 20.2461C788.564 21.3551 789.659 22.2423 790.753 23.3513C792.669 25.1257 792.669 27.122 790.48 28.8964C789.112 30.0054 788.017 30.8926 786.649 32.0016C777.893 39.0993 778.44 47.7495 788.564 54.4036C793.49 56.6216 794.584 59.505 794.037 62.8321Z" fill="white"/>
<path d="M595.208 68.2951C594.661 72.9529 591.378 76.9454 587.82 80.9378C587.273 81.6032 586.726 81.825 586.726 82.4904C586.179 85.152 585.084 88.7009 584.81 91.5843L615.457 94.9113C615.731 93.8023 618.193 88.7009 618.467 87.5918C619.288 84.043 619.561 80.4942 622.571 77.389C624.213 75.3927 626.402 73.6183 627.77 71.6221C631.875 66.5207 628.317 61.641 619.288 59.8666C619.561 60.3102 619.835 60.7538 620.382 61.1974C622.024 63.6372 622.024 66.2989 620.656 68.7387C620.109 69.8477 618.74 70.7349 616.551 70.5131C615.183 70.2913 613.268 69.6259 612.721 68.9605C611.9 67.8515 611.626 66.5207 611.352 65.4117C610.805 62.75 613.268 60.532 615.183 58.0922C618.74 54.0998 619.835 50.1073 618.193 45.8931C616.004 39.9044 606.701 36.3556 599.039 35.4684C600.407 36.1338 601.228 36.5774 602.049 36.7992C607.248 38.5736 609.163 41.457 610.258 44.5623C611.626 47.8893 606.154 51.4381 600.407 51.2163C594.935 50.9945 591.104 47.8893 592.198 44.5623C593.293 41.9006 594.661 39.4608 596.029 37.021C598.218 33.0286 595.482 27.9271 588.915 25.7091C589.736 26.8181 590.83 27.7053 591.925 28.8143C593.84 30.5887 593.84 32.585 591.651 34.3594C590.283 35.4684 589.188 36.3556 587.82 37.4646C579.064 44.5623 579.612 53.2125 589.736 59.8666C594.661 62.0846 595.756 64.968 595.208 68.2951Z" fill="white"/>
<path d="M425.793 64.474C426.887 66.0267 420.867 79.3348 420.32 81.1092C419.226 83.549 484.349 73.5679 484.623 71.7935C485.17 68.4665 485.717 65.1395 489.275 62.4778C491.737 60.7034 492.285 58.2636 491.464 55.8238C490.643 51.6095 488.454 48.0607 485.17 44.7337C482.434 41.8502 482.434 38.9668 484.076 35.6398C484.623 34.5308 485.17 33.2 485.717 32.091L485.17 31.8692C484.349 32.9782 483.255 34.309 482.434 35.418C479.424 40.5194 478.329 45.8427 480.519 51.3877C481.613 54.2712 481.066 57.3764 477.782 59.1508C475.593 60.4816 472.583 61.5906 469.847 62.256C464.648 63.365 460.544 60.4816 460.544 56.0456C460.544 54.0493 460.817 51.8313 460.27 49.8351C458.902 44.7337 454.797 40.7412 450.693 37.1924C448.504 35.1962 446.588 33.2 446.315 30.5383C446.041 27.4331 446.315 24.3279 446.315 21.2227C446.041 21.4445 445.494 21.8881 445.22 22.5535C441.116 28.3203 441.663 34.0872 445.494 39.6322C447.683 42.9593 449.051 46.0645 448.778 49.6133C448.504 54.0494 444.673 58.0418 440.021 58.7072C435.643 59.3726 433.181 57.5982 433.454 54.0494C433.454 52.9403 434.002 51.8313 434.275 50.9441C435.37 47.6171 432.36 44.0683 427.982 43.6247C429.076 45.1773 431.265 46.2863 430.171 48.2825C429.35 49.8351 427.982 51.3877 426.887 52.7185C426.614 52.9403 426.34 53.1621 426.34 53.3839C424.151 55.3802 423.604 57.82 424.425 60.4816C424.698 62.0342 424.972 63.365 425.793 64.474Z" fill="white"/>
<path d="M779.442 74.0116C778.348 75.5643 784.368 88.8724 784.915 90.6468C786.009 93.0866 720.886 83.1055 720.612 81.3311C720.065 78.0041 719.518 74.6771 715.96 72.0154C713.498 70.241 712.95 67.8012 713.771 65.3614C714.592 61.1471 716.781 57.5983 720.065 54.2713C722.801 51.3878 722.801 48.5044 721.159 45.1774C720.612 44.0684 720.065 42.7376 719.517 41.6286L720.065 41.4067C720.886 42.5158 721.98 43.8466 722.801 44.9556C725.811 50.057 726.906 55.3803 724.716 60.9253C723.622 63.8088 724.169 66.914 727.453 68.6884C729.642 70.0192 732.652 71.1282 735.388 71.7936C740.587 72.9026 744.691 70.0192 744.691 65.5832C744.691 63.5869 744.418 61.3689 744.965 59.3727C746.333 54.2713 750.438 50.2788 754.542 46.73C756.731 44.7338 758.646 42.7376 758.92 40.0759C759.194 36.9707 758.92 33.8655 758.92 30.7603C759.194 30.9821 759.741 31.4257 760.015 32.0911C764.119 37.8579 763.572 43.6248 759.741 49.1698C757.552 52.4968 756.184 55.6021 756.457 59.1509C756.731 63.5869 760.562 67.5794 765.214 68.2448C769.592 68.9102 772.054 67.1358 771.781 63.5869C771.781 62.4779 771.233 61.3689 770.96 60.4817C769.865 57.1547 772.875 53.6059 777.253 53.1623C776.159 54.7149 773.97 55.8239 775.064 57.8201C775.885 59.3727 777.253 60.9253 778.348 62.2561C778.621 62.4779 778.895 62.6997 778.895 62.9215C781.084 64.9178 781.631 67.3576 780.81 70.0192C780.537 71.5718 780.263 72.9026 779.442 74.0116Z" fill="white"/>
<path d="M476.566 30.7603C474.103 26.3242 472.735 21.6664 474.65 16.7868C475.198 15.6777 475.745 14.5687 476.018 13.2379C476.839 10.7981 477.113 8.35828 474.65 6.36206C474.377 6.14026 474.103 5.69666 474.103 5.47485C474.103 5.47485 474.103 5.47485 474.103 5.25305C481.217 7.47107 483.68 11.6853 481.765 17.8958C481.217 19.6702 480.123 21.4446 478.755 22.9972C476.566 26.3242 476.292 26.9896 476.566 30.7603Z" fill="white"/>
<path d="M670.556 62.6903C670.83 63.7994 671.103 64.9084 670.83 66.0174L671.103 79.3255L699.561 88.6412C706.128 72.4496 707.496 65.352 707.222 63.3557C707.222 62.9121 707.223 59.3633 707.77 58.9197C711.601 55.5927 712.148 51.6002 708.317 48.0514C705.581 45.6116 705.854 42.95 706.949 40.2883C707.496 39.1793 708.043 38.0703 708.591 36.7395C708.317 36.7395 708.317 36.5177 708.043 36.5177C707.223 37.6267 706.128 38.7357 705.581 40.0665C703.939 43.3936 703.939 46.7206 705.307 50.0476C705.854 51.3784 705.581 52.4875 704.76 53.5965C703.939 54.7055 702.297 55.1491 700.655 54.7055C699.287 54.2619 698.466 53.3747 698.74 52.2656C699.287 50.2694 700.108 48.2732 700.655 46.4988C701.476 44.2808 702.571 42.0628 702.571 39.8447C702.844 34.7433 700.382 30.3073 696.551 26.3148C695.456 25.2058 694.088 24.3186 692.994 23.4314L692.72 23.6532C692.994 24.0968 693.541 24.7622 693.815 25.2058C694.909 26.9802 696.277 28.5328 697.098 30.5291C698.466 33.4125 698.193 36.5177 696.277 39.1793C695.183 40.9538 693.267 41.6192 691.078 41.1756C688.342 40.5101 686.7 38.7357 687.521 36.0741C688.069 34.0779 688.889 32.0817 689.71 30.3073C687.795 31.8599 686.153 33.6343 684.785 35.6305C681.775 40.5101 682.049 45.3898 684.238 50.2694C685.332 52.7093 686.427 55.3709 687.248 57.8107C687.795 60.0287 687.521 62.2467 685.059 63.5776C682.322 65.1302 680.954 64.4648 680.407 62.2467C680.133 61.3595 679.86 60.2505 680.133 59.3633C680.68 56.7017 679.86 54.4837 678.218 52.2656C676.85 50.4912 675.482 48.7168 675.208 46.4988C674.934 46.9424 674.387 47.1642 674.387 47.6078C673.84 49.3822 674.661 50.713 675.208 52.2656C675.755 53.5965 676.302 55.1491 676.576 56.4799C676.85 57.8107 675.755 58.6979 674.113 58.6979C672.472 58.6979 671.377 58.0325 671.377 56.4799C671.377 55.3709 671.924 54.0401 671.924 52.9311C669.462 54.2619 668.367 55.8145 668.914 58.2543C669.462 59.8069 670.283 61.1377 670.556 62.6903Z" fill="white"/>
<path d="M693.949 56.7017C692.581 53.5964 690.665 50.9348 692.854 48.0514C693.401 49.1604 693.949 50.4912 694.496 51.6002C695.043 53.3746 694.77 54.9273 693.949 56.7017Z" fill="white"/>
</svg>
