<svg width="1450" height="182" viewBox="0 0 1450 182" fill="none" xmlns="http://www.w3.org/2000/svg">
<path d="M-31.9999 85.4264L-178 71.1115L-172 -40H1572L1562 131.098L1513.97 114.738L1499.46 99.7414L1473.45 114.738H1422.92L1413.41 107.921L1354.87 114.738L1341.37 181.541L1322.35 131.098L1284.33 99.7414L1255.31 131.098L1202.28 114.738C1189.27 112.466 1170.86 106.285 1161.25 99.7414C1149.24 91.5614 1125.23 107.921 1116.72 107.921C1109.92 107.921 1091.53 89.9709 1084.19 92.2431L1043.67 114.738C1043.67 114.738 992.436 79.9731 987.633 79.9731C982.83 79.9731 931.099 131.098 931.099 131.098L886.072 79.9731H843.045L799.519 92.2431L780.007 145.413L751.49 92.2431L721.972 114.738L693.455 99.7414L666.938 114.738L653.43 85.4264L642.906 99.7414L621.893 92.2431L555.853 99.7414L531.338 107.921L504.321 85.4264L484.309 145.413L442.784 85.4264L405.261 71.1115L304.725 85.4264L243.187 71.1115L189.655 85.4264L162.638 71.1115L129.618 131.098L65.5001 99.7414L36.0001 131.098L16.5001 99.7414L-7.99988 114.738V145.413V181.541L-23.4999 139.628L-31.9999 85.4264Z" fill="#05071A"/>
<path opacity="0.7" d="M-78.2524 98.1784L-222 90.2307L-216.093 28.5415H1501L1491.15 123.535L1443.87 114.452L1429.58 106.126L1403.97 114.452H1354.22L1344.86 110.668L1287.22 114.452L1273.92 151.542L1255.21 123.535L1217.77 106.126L1189.2 123.535L1136.99 114.452C1124.18 113.191 1106.05 109.759 1096.59 106.126C1084.77 101.585 1061.12 110.668 1052.75 110.668C1046.05 110.668 1027.94 100.702 1020.72 101.963L980.819 114.452C980.819 114.452 930.378 95.1507 925.649 95.1507C920.92 95.1507 869.987 123.535 869.987 123.535L825.654 95.1507H783.292L740.437 101.963L721.226 131.483L693.149 101.963L664.087 114.452L636.009 106.126L609.902 114.452L596.602 98.1784L586.24 106.126L565.552 101.963L500.531 106.126L476.394 110.668L449.794 98.1784L430.091 131.483L389.206 98.1784L352.262 81.3569L335 106.126L301.5 95.1507L276.5 101.963L253.277 98.1784L227 119.542L192.689 90.2307L139.982 98.1784L113.383 90.2307L80.8722 123.535L17.7433 106.126L-11.3016 123.535L-30.5007 106.126L-54.6227 114.452V131.483V151.542L-69.8836 128.271L-78.2524 98.1784Z" fill="#05071A"/>
</svg>
